<?xml version="1.0" encoding="UTF-8" standalone="no"?>
<!-- Created with Inkscape (http://www.inkscape.org/) -->

<svg
   version="1.1"
   id="svg3953"
   width="76.492371"
   height="85.38855"
   viewBox="0 0 76.492372 85.388551"
   sodipodi:docname="chooseFighter.svg"
   inkscape:version="1.2.2 (732a01da63, 2022-12-09)"
   xmlns:inkscape="http://www.inkscape.org/namespaces/inkscape"
   xmlns:sodipodi="http://sodipodi.sourceforge.net/DTD/sodipodi-0.dtd"
   xmlns="http://www.w3.org/2000/svg"
   xmlns:svg="http://www.w3.org/2000/svg">
  <defs
     id="defs3957">
    <filter
       style="color-interpolation-filters:sRGB"
       inkscape:label="Drop Shadow"
       id="filter6673-3-29-8"
       x="-0.11423368"
       y="-0.27929229"
       width="1.2964636"
       height="1.72483">
      <feFlood
         flood-opacity="0.698039"
         flood-color="rgb(29,29,29)"
         result="flood"
         id="feFlood6663-6-7-4" />
      <feComposite
         in="flood"
         in2="SourceGraphic"
         operator="out"
         result="composite1"
         id="feComposite6665-06-5-7" />
      <feGaussianBlur
         in="composite1"
         stdDeviation="0.7"
         result="blur"
         id="feGaussianBlur6667-12-7-3" />
      <feOffset
         dx="1"
         dy="1"
         result="offset"
         id="feOffset6669-4-1-2" />
      <feComposite
         in="offset"
         in2="SourceGraphic"
         operator="atop"
         result="composite2"
         id="feComposite6671-1-3-7" />
    </filter>
  </defs>
  <sodipodi:namedview
     id="namedview3955"
     pagecolor="#ffffff"
     bordercolor="#000000"
     borderopacity="0.25"
     inkscape:showpageshadow="2"
     inkscape:pageopacity="0.0"
     inkscape:pagecheckerboard="0"
     inkscape:deskcolor="#d1d1d1"
     showgrid="false"
     inkscape:zoom="7.477148"
     inkscape:cx="-229.23179"
     inkscape:cy="178.74462"
     inkscape:window-width="1920"
     inkscape:window-height="991"
     inkscape:window-x="-9"
     inkscape:window-y="-9"
     inkscape:window-maximized="1"
     inkscape:current-layer="g3959" />
  <g
     inkscape:groupmode="layer"
     inkscape:label="Image"
     id="g3959"
     transform="translate(661.42419,-1598.324)">
    <ellipse
       style="fill:#000000;fill-opacity:1;fill-rule:evenodd;stroke-width:2.81646;stroke-linecap:square;stroke-miterlimit:5.9;stroke-dasharray:6.90614, 82.8733;paint-order:markers stroke fill"
       id="path3680-98-2-3"
       cx="-623.48346"
       cy="1643.5387"
       rx="37.94075"
       ry="40.173859" />
    <path
       id="path3680-9-3-3-5-4"
       style="fill:#030100;fill-opacity:0.994382;fill-rule:evenodd;stroke-width:2.81646;stroke-linecap:square;stroke-miterlimit:5.9;stroke-dasharray:6.90614, 82.8733;paint-order:markers stroke fill"
       d="m -623.41679,1602.8309 a 37.940756,40.173856 0 0 0 -22.2334,7.7415 l 37.69389,12.9271 12.82357,-7.2526 a 37.940756,40.173856 0 0 0 -28.28406,-13.416 z m -34.99566,24.8542 a 37.940756,40.173856 0 0 0 -2.94357,15.3199 37.940756,40.173856 0 0 0 1.27422,10.0083 l 14.22037,-8.0526 c -0.32897,-0.4596 -0.61204,-0.954 -0.82447,-1.4964 -1.88775,-4.8206 -1.50429,-8.7873 -0.28606,-11.8604 z m 42.51128,21.0686 -36.20853,20.4981 a 37.940756,40.173856 0 0 0 23.46675,13.5272 32.002201,32.461911 0 0 1 -0.94714,-7.4969 32.002201,32.461911 0 0 1 13.68892,-26.5284 z" />
    <path
       style="fill:#f25104;fill-opacity:1;fill-rule:evenodd;stroke-width:2.96008;stroke-linecap:square;stroke-miterlimit:5.9;stroke-dasharray:7.25829, 87.0992;paint-order:markers stroke fill"
       d="m -644.99961,1610.1803 c 0,0 37.62684,5.2011 46.3958,1.0761 8.76896,-4.125 5.8194,9.5054 5.8194,9.5054 l -60.10727,-2.5108 c 0,0 -0.71747,-8.519 7.89207,-8.0707 z"
       id="path5207-97-0-8" />
    <path
       style="fill:#833812;fill-opacity:0.365169;fill-rule:evenodd;stroke-width:2.50969;stroke-linecap:square;stroke-miterlimit:5.9;stroke-dasharray:6.15391, 73.8467;paint-order:markers stroke fill"
       d="m -645.49636,1614.2655 c 0,0 38.72332,3.2482 46.63296,-0.039 7.90963,-3.2873 6.15641,6.1405 6.15641,6.1405 l -60.23796,-2.001 c 0,0 -0.31712,-4.4576 7.44859,-4.1003 z"
       id="path5207-6-1-36-8"
       sodipodi:nodetypes="csccc" />
    <path
       style="fill:#f87212;fill-opacity:1;fill-rule:evenodd;stroke-width:1.93585;stroke-linecap:square;stroke-miterlimit:5.9;stroke-dasharray:4.7468, 56.9616;paint-order:markers stroke fill"
       d="m -629.44492,1618.273 c 0,0 27.89262,1.0655 32.29881,-1.0352 6.67748,-3.1836 4.34584,3.767 4.34584,3.767 l -60.18779,-2.8056 c 0,0 3.02463,-1.6048 9.89576,-1.2581 z"
       id="path5207-6-4-9-1-7"
       sodipodi:nodetypes="cscccc" />
    <path
       style="fill:#f25104;fill-opacity:1;fill-rule:evenodd;stroke-width:0.882637;stroke-linecap:square;stroke-miterlimit:5.9;stroke-dasharray:2.16427, 25.9712;paint-order:markers stroke fill"
       d="m -589.74348,1598.324 2.59392,1.755 -7.83798,11.5715 2.93209,-10.2684 z"
       id="path10798-6-5-3-4"
       sodipodi:nodetypes="ccccc" />
    <path
       style="fill:#f25104;fill-opacity:1;fill-rule:evenodd;stroke-width:0.882637;stroke-linecap:square;stroke-miterlimit:5.9;stroke-dasharray:2.16427, 25.9712;paint-order:markers stroke fill"
       d="m -595.45198,1610.8691 7.6174,-1.6963 -0.23201,2.3533 z"
       id="path10800-5-05-9-8"
       sodipodi:nodetypes="cccc" />
    <path
       id="rect5711-3-1-3"
       style="fill:#feccae;fill-opacity:1;fill-rule:evenodd;stroke-width:0.722915;stroke-linecap:square;stroke-miterlimit:5.9;stroke-dasharray:1.77263, 21.2715;paint-order:markers stroke fill;filter:url(#filter6673-3-29-8)"
       d="m 57.060891,580.75712 c -2.53758,-0.0167 -4.71419,0.1446 -4.71419,0.1446 0,0 -2.90159,1.49981 -1.59028,4.35758 0.7141,1.55628 4.20062,1.51168 4.20062,1.51168 0,0 0.59491,-0.5503 2.79096,-0.55702 h 0.004 c 0.0136,0 0.0255,-4e-5 0.039,0 2.19605,0.007 2.79096,0.55702 2.79096,0.55702 0,0 3.48652,0.0446 4.20062,-1.51168 1.31131,-2.85777 -1.59028,-4.35758 -1.59028,-4.35758 0,0 -2.1766,-0.16126 -4.71419,-0.1446 -0.22603,0.002 -0.45648,0.007 -0.68711,0.0115 -0.0142,-3e-4 -0.0283,2.9e-4 -0.0425,0 -0.23064,-0.005 -0.46109,-0.01 -0.68712,-0.0115 z"
       transform="matrix(3.4886637,0,0,3.7929443,-821.47315,-577.28004)" />
    <path
       id="rect4612-4-0-9"
       style="fill:#3b1701;fill-rule:evenodd;stroke-width:3.01092;stroke-linecap:square;stroke-miterlimit:5.9;stroke-dasharray:7.38295, 88.5954;paint-order:markers stroke fill"
       d="m -636.65529,1629.7014 9.61241,6.1023 -0.6538,1.2238 -9.9423,-5.0262 z"
       sodipodi:nodetypes="ccccc" />
    <path
       id="rect4612-9-2-4-2"
       style="fill:#3b1701;fill-rule:evenodd;stroke-width:3.01092;stroke-linecap:square;stroke-miterlimit:5.9;stroke-dasharray:7.38295, 88.5954;paint-order:markers stroke fill"
       d="m -610.20708,1635.8399 9.47676,-5.8537 0.97009,2.3067 -9.97168,4.957 z"
       sodipodi:nodetypes="ccccc" />
    <ellipse
       style="fill:#030100;fill-opacity:0.933333;fill-rule:evenodd;stroke-width:2.00573;stroke-linecap:square;stroke-miterlimit:5.9;stroke-dasharray:4.91814, 59.0176;paint-order:markers stroke fill"
       id="path5102-0-2-8"
       cx="-604.13727"
       cy="1639.434"
       rx="2.9478412"
       ry="2.8770273" />
    <ellipse
       style="fill:#ffdac7;fill-opacity:0.933333;fill-rule:evenodd;stroke-width:0.708493;stroke-linecap:square;stroke-miterlimit:5.9;stroke-dasharray:1.73726, 20.8472;paint-order:markers stroke fill"
       id="path5102-2-94-0-1"
       cx="-604.9549"
       cy="1638.2881"
       rx="1.0828173"
       ry="0.97728896" />
    <ellipse
       style="fill:#030100;fill-opacity:0.933333;fill-rule:evenodd;stroke-width:2.00573;stroke-linecap:square;stroke-miterlimit:5.9;stroke-dasharray:4.91814, 59.0176;paint-order:markers stroke fill"
       id="path5102-3-4-3-4"
       cx="-631.4303"
       cy="1638.9944"
       rx="2.9478412"
       ry="2.8770273" />
    <ellipse
       style="fill:#ffdac7;fill-opacity:0.933333;fill-rule:evenodd;stroke-width:0.708493;stroke-linecap:square;stroke-miterlimit:5.9;stroke-dasharray:1.73726, 20.8472;paint-order:markers stroke fill"
       id="path5102-2-4-7-1-3"
       cx="-632.24792"
       cy="1637.8483"
       rx="1.0828173"
       ry="0.97728896" />
  </g>
</svg>
