<?xml version="1.0" encoding="UTF-8" standalone="no"?>
<!-- Created with Inkscape (http://www.inkscape.org/) -->

<svg
   version="1.1"
   id="svg3953"
   width="76.492371"
   height="85.38855"
   viewBox="0 0 76.492372 85.388551"
   sodipodi:docname="chooseFighter.svg"
   inkscape:version="1.2.2 (732a01da63, 2022-12-09)"
   xmlns:inkscape="http://www.inkscape.org/namespaces/inkscape"
   xmlns:sodipodi="http://sodipodi.sourceforge.net/DTD/sodipodi-0.dtd"
   xmlns="http://www.w3.org/2000/svg"
   xmlns:svg="http://www.w3.org/2000/svg">
  <defs
     id="defs3957">
    <filter
       style="color-interpolation-filters:sRGB"
       inkscape:label="Drop Shadow"
       id="filter6673-3-29-6-51"
       x="-0.11423368"
       y="-0.27929229"
       width="1.2964636"
       height="1.72483">
      <feFlood
         flood-opacity="0.698039"
         flood-color="rgb(29,29,29)"
         result="flood"
         id="feFlood6663-6-7-7-70" />
      <feComposite
         in="flood"
         in2="SourceGraphic"
         operator="out"
         result="composite1"
         id="feComposite6665-06-5-9-5" />
      <feGaussianBlur
         in="composite1"
         stdDeviation="0.7"
         result="blur"
         id="feGaussianBlur6667-12-7-4-4" />
      <feOffset
         dx="1"
         dy="1"
         result="offset"
         id="feOffset6669-4-1-22-2" />
      <feComposite
         in="offset"
         in2="SourceGraphic"
         operator="atop"
         result="composite2"
         id="feComposite6671-1-3-0-4" />
    </filter>
  </defs>
  <sodipodi:namedview
     id="namedview3955"
     pagecolor="#ffffff"
     bordercolor="#000000"
     borderopacity="0.25"
     inkscape:showpageshadow="2"
     inkscape:pageopacity="0.0"
     inkscape:pagecheckerboard="0"
     inkscape:deskcolor="#d1d1d1"
     showgrid="false"
     inkscape:zoom="7.477148"
     inkscape:cx="-229.23179"
     inkscape:cy="178.74462"
     inkscape:window-width="1920"
     inkscape:window-height="991"
     inkscape:window-x="-9"
     inkscape:window-y="-9"
     inkscape:window-maximized="1"
     inkscape:current-layer="g3959" />
  <g
     inkscape:groupmode="layer"
     inkscape:label="Image"
     id="g3959"
     transform="translate(418.3377,-1699.2711)">
    <ellipse
       style="fill:#000000;fill-opacity:1;fill-rule:evenodd;stroke-width:2.81646;stroke-linecap:square;stroke-miterlimit:5.9;stroke-dasharray:6.90614, 82.8733;paint-order:markers stroke fill"
       id="path3680-98-2-36-4"
       cx="-380.39694"
       cy="1744.4858"
       rx="37.94075"
       ry="40.173859"
       inkscape:export-filename="purple-fighter-v2.svg"
       inkscape:export-xdpi="96"
       inkscape:export-ydpi="96" />
    <path
       id="path3680-9-3-3-5-46-6"
       style="fill:#030100;fill-opacity:0.994382;fill-rule:evenodd;stroke-width:2.81646;stroke-linecap:square;stroke-miterlimit:5.9;stroke-dasharray:6.90614, 82.8733;paint-order:markers stroke fill"
       d="m -380.33032,1703.778 a 37.940756,40.173856 0 0 0 -22.23337,7.7414 l 37.69388,12.9272 12.82356,-7.2526 a 37.940756,40.173856 0 0 0 -28.28407,-13.416 z m -34.99564,24.8541 a 37.940756,40.173856 0 0 0 -2.94356,15.32 37.940756,40.173856 0 0 0 1.2742,10.0083 l 14.22037,-8.0526 c -0.32897,-0.4596 -0.61204,-0.954 -0.82446,-1.4964 -1.88776,-4.8206 -1.50428,-8.7873 -0.28607,-11.8604 z m 42.51129,21.0687 -36.20853,20.4981 a 37.940756,40.173856 0 0 0 23.46673,13.5272 32.002201,32.461911 0 0 1 -0.94714,-7.4969 32.002201,32.461911 0 0 1 13.68894,-26.5284 z" />
    <path
       style="fill:#bf2ae8;fill-opacity:1;fill-rule:evenodd;stroke-width:2.96008;stroke-linecap:square;stroke-miterlimit:5.9;stroke-dasharray:7.25829, 87.0992;paint-order:markers stroke fill"
       d="m -401.91313,1711.1274 c 0,0 37.62683,5.2011 46.3958,1.076 8.76897,-4.1249 5.81941,9.5055 5.81941,9.5055 l -60.10727,-2.5109 c 0,0 -0.71747,-8.519 7.89206,-8.0706 z"
       id="path5207-97-0-1-4" />
    <path
       style="fill:#b51454;fill-opacity:0.365169;fill-rule:evenodd;stroke-width:2.50969;stroke-linecap:square;stroke-miterlimit:5.9;stroke-dasharray:6.15391, 73.8467;paint-order:markers stroke fill"
       d="m -402.40988,1715.2126 c 0,0 38.72332,3.2482 46.63296,-0.039 7.90964,-3.2873 6.15641,6.1405 6.15641,6.1405 l -60.23794,-2.001 c 0,0 -0.31712,-4.4576 7.44857,-4.1003 z"
       id="path5207-6-1-36-89-9"
       sodipodi:nodetypes="csccc" />
    <path
       style="fill:#780d60;fill-opacity:1;fill-rule:evenodd;stroke-width:1.93585;stroke-linecap:square;stroke-miterlimit:5.9;stroke-dasharray:4.7468, 56.9616;paint-order:markers stroke fill"
       d="m -386.35844,1719.22 c 0,0 27.89263,1.0656 32.29882,-1.0351 6.67746,-3.1836 4.34583,3.767 4.34583,3.767 l -60.1878,-2.8056 c 0,0 3.02464,-1.6048 9.89578,-1.2581 z"
       id="path5207-6-4-9-1-0-6"
       sodipodi:nodetypes="cscccc" />
    <path
       style="fill:#bf2ae8;fill-opacity:1;fill-rule:evenodd;stroke-width:0.882637;stroke-linecap:square;stroke-miterlimit:5.9;stroke-dasharray:2.16427, 25.9712;paint-order:markers stroke fill"
       d="m -346.657,1699.2711 2.59394,1.755 -7.83799,11.5715 2.93208,-10.2684 z"
       id="path10798-6-5-3-46-0"
       sodipodi:nodetypes="ccccc" />
    <path
       style="fill:#bf2ae8;fill-opacity:1;fill-rule:evenodd;stroke-width:0.882637;stroke-linecap:square;stroke-miterlimit:5.9;stroke-dasharray:2.16427, 25.9712;paint-order:markers stroke fill"
       d="m -352.3655,1711.8162 7.61739,-1.6963 -0.23197,2.3533 z"
       id="path10800-5-05-9-6-8"
       sodipodi:nodetypes="cccc" />
    <path
       id="rect5711-3-1-6-9"
       style="fill:#feccae;fill-opacity:1;fill-rule:evenodd;stroke-width:0.722915;stroke-linecap:square;stroke-miterlimit:5.9;stroke-dasharray:1.77263, 21.2715;paint-order:markers stroke fill;filter:url(#filter6673-3-29-6-51)"
       d="m 126.73986,607.37156 c -2.53758,-0.0167 -4.71419,0.1446 -4.71419,0.1446 0,0 -2.90159,1.49981 -1.59028,4.35758 0.7141,1.55628 4.20062,1.51168 4.20062,1.51168 0,0 0.59491,-0.5503 2.79096,-0.55702 h 0.004 c 0.0136,0 0.0255,-4e-5 0.039,0 2.19605,0.007 2.79096,0.55702 2.79096,0.55702 0,0 3.48652,0.0446 4.20062,-1.51168 1.31131,-2.85777 -1.59028,-4.35758 -1.59028,-4.35758 0,0 -2.1766,-0.16126 -4.71419,-0.1446 -0.22603,0.002 -0.45648,0.007 -0.68711,0.0115 -0.0142,-3e-4 -0.0283,2.9e-4 -0.0425,0 -0.23064,-0.005 -0.46109,-0.01 -0.68712,-0.0115 z"
       transform="matrix(3.4886637,0,0,3.7929443,-821.47315,-577.28004)" />
    <path
       id="rect4612-4-0-90-6"
       style="fill:#3b1701;fill-rule:evenodd;stroke-width:3.01092;stroke-linecap:square;stroke-miterlimit:5.9;stroke-dasharray:7.38295, 88.5954;paint-order:markers stroke fill"
       d="m -393.56881,1730.6485 9.61241,6.1023 -0.6538,1.2237 -9.9423,-5.0261 z"
       sodipodi:nodetypes="ccccc" />
    <path
       id="rect4612-9-2-4-5-8"
       style="fill:#3b1701;fill-rule:evenodd;stroke-width:3.01092;stroke-linecap:square;stroke-miterlimit:5.9;stroke-dasharray:7.38295, 88.5954;paint-order:markers stroke fill"
       d="m -367.12059,1736.787 9.47674,-5.8537 0.9701,2.3067 -9.97169,4.957 z"
       sodipodi:nodetypes="ccccc" />
    <ellipse
       style="fill:#030100;fill-opacity:0.933333;fill-rule:evenodd;stroke-width:2.00573;stroke-linecap:square;stroke-miterlimit:5.9;stroke-dasharray:4.91814, 59.0176;paint-order:markers stroke fill"
       id="path5102-0-2-6-0"
       cx="-361.05072"
       cy="1740.3811"
       rx="2.9478412"
       ry="2.8770273" />
    <ellipse
       style="fill:#ffdac7;fill-opacity:0.933333;fill-rule:evenodd;stroke-width:0.708493;stroke-linecap:square;stroke-miterlimit:5.9;stroke-dasharray:1.73726, 20.8472;paint-order:markers stroke fill"
       id="path5102-2-94-0-12-6"
       cx="-361.86835"
       cy="1739.2352"
       rx="1.0828173"
       ry="0.97728896" />
    <ellipse
       style="fill:#030100;fill-opacity:0.933333;fill-rule:evenodd;stroke-width:2.00573;stroke-linecap:square;stroke-miterlimit:5.9;stroke-dasharray:4.91814, 59.0176;paint-order:markers stroke fill"
       id="path5102-3-4-3-1-6"
       cx="-388.34372"
       cy="1739.9415"
       rx="2.9478412"
       ry="2.8770273" />
    <ellipse
       style="fill:#ffdac7;fill-opacity:0.933333;fill-rule:evenodd;stroke-width:0.708493;stroke-linecap:square;stroke-miterlimit:5.9;stroke-dasharray:1.73726, 20.8472;paint-order:markers stroke fill"
       id="path5102-2-4-7-1-8-1"
       cx="-389.16144"
       cy="1738.7954"
       rx="1.0828173"
       ry="0.97728896" />
  </g>
</svg>
