<?xml version="1.0" encoding="UTF-8" standalone="no"?>
<!-- Created with Inkscape (http://www.inkscape.org/) -->

<svg
   version="1.1"
   id="svg3953"
   width="76.49234"
   height="85.388794"
   viewBox="0 0 76.492341 85.388795"
   sodipodi:docname="chooseFighter.svg"
   inkscape:version="1.2.2 (732a01da63, 2022-12-09)"
   xmlns:inkscape="http://www.inkscape.org/namespaces/inkscape"
   xmlns:sodipodi="http://sodipodi.sourceforge.net/DTD/sodipodi-0.dtd"
   xmlns="http://www.w3.org/2000/svg"
   xmlns:svg="http://www.w3.org/2000/svg">
  <defs
     id="defs3957">
    <filter
       style="color-interpolation-filters:sRGB"
       inkscape:label="Drop Shadow"
       id="filter6673-3"
       x="-0.11423368"
       y="-0.27929229"
       width="1.2964636"
       height="1.72483">
      <feFlood
         flood-opacity="0.698039"
         flood-color="rgb(29,29,29)"
         result="flood"
         id="feFlood6663-6" />
      <feComposite
         in="flood"
         in2="SourceGraphic"
         operator="out"
         result="composite1"
         id="feComposite6665-06" />
      <feGaussianBlur
         in="composite1"
         stdDeviation="0.7"
         result="blur"
         id="feGaussianBlur6667-12" />
      <feOffset
         dx="1"
         dy="1"
         result="offset"
         id="feOffset6669-4" />
      <feComposite
         in="offset"
         in2="SourceGraphic"
         operator="atop"
         result="composite2"
         id="feComposite6671-1" />
    </filter>
  </defs>
  <sodipodi:namedview
     id="namedview3955"
     pagecolor="#ffffff"
     bordercolor="#000000"
     borderopacity="0.25"
     inkscape:showpageshadow="2"
     inkscape:pageopacity="0.0"
     inkscape:pagecheckerboard="0"
     inkscape:deskcolor="#d1d1d1"
     showgrid="false"
     inkscape:zoom="7.477148"
     inkscape:cx="-229.23179"
     inkscape:cy="178.74462"
     inkscape:window-width="1920"
     inkscape:window-height="991"
     inkscape:window-x="-9"
     inkscape:window-y="-9"
     inkscape:window-maximized="1"
     inkscape:current-layer="g3959" />
  <g
     inkscape:groupmode="layer"
     inkscape:label="Image"
     id="g3959"
     transform="translate(432.33495,-1596.8021)">
    <ellipse
       style="fill:#000000;fill-opacity:1;fill-rule:evenodd;stroke-width:2.81646;stroke-linecap:square;stroke-miterlimit:5.9;stroke-dasharray:6.90614, 82.8733;paint-order:markers stroke fill"
       id="path3680-98"
       cx="-394.3942"
       cy="1642.0171"
       rx="37.94075"
       ry="40.173859" />
    <path
       id="path3680-9-3-3"
       style="fill:#030100;fill-opacity:0.994382;fill-rule:evenodd;stroke-width:2.81646;stroke-linecap:square;stroke-miterlimit:5.9;stroke-dasharray:6.90614, 82.8733;paint-order:markers stroke fill"
       d="m -394.3276,1601.309 a 37.940756,40.173856 0 0 0 -22.23339,7.7414 l 37.69389,12.9271 12.82356,-7.2525 a 37.940756,40.173856 0 0 0 -28.28406,-13.416 z m -34.99565,24.8541 a 37.940756,40.173856 0 0 0 -2.94357,15.32 37.940756,40.173856 0 0 0 1.27421,10.0083 l 14.22039,-8.0526 c -0.32899,-0.4596 -0.61205,-0.954 -0.82447,-1.4964 -1.88776,-4.8206 -1.50428,-8.7873 -0.28608,-11.8604 z m 42.51129,21.0687 -36.20852,20.4981 a 37.940756,40.173856 0 0 0 23.46672,13.5272 32.002201,32.461911 0 0 1 -0.94714,-7.497 32.002201,32.461911 0 0 1 13.68894,-26.5283 z" />
    <path
       style="fill:#e8302a;fill-opacity:1;fill-rule:evenodd;stroke-width:2.96008;stroke-linecap:square;stroke-miterlimit:5.9;stroke-dasharray:7.25829, 87.0992;paint-order:markers stroke fill"
       d="m -415.91043,1608.6584 c 0,0 37.62685,5.2011 46.39581,1.076 8.76897,-4.1249 5.81941,9.5055 5.81941,9.5055 l -60.10727,-2.5109 c 0,0 -0.71748,-8.519 7.89205,-8.0706 z"
       id="path5207-97" />
    <path
       style="fill:#b51454;fill-opacity:0.365169;fill-rule:evenodd;stroke-width:2.50969;stroke-linecap:square;stroke-miterlimit:5.9;stroke-dasharray:6.15391, 73.8467;paint-order:markers stroke fill"
       d="m -416.40717,1612.7436 c 0,0 38.72332,3.2482 46.63297,-0.039 7.90964,-3.2873 6.15642,6.1404 6.15642,6.1404 l -60.23797,-2.001 c 0,0 -0.31712,-4.4575 7.44858,-4.1002 z"
       id="path5207-6-1"
       sodipodi:nodetypes="csccc" />
    <path
       style="fill:#780d0d;fill-opacity:1;fill-rule:evenodd;stroke-width:1.93585;stroke-linecap:square;stroke-miterlimit:5.9;stroke-dasharray:4.7468, 56.9616;paint-order:markers stroke fill"
       d="m -400.35572,1616.751 c 0,0 27.89262,1.0656 32.29882,-1.0351 6.67747,-3.1836 4.34582,3.7669 4.34582,3.7669 l -60.18779,-2.8055 c 0,0 3.02463,-1.6049 9.89576,-1.2581 z"
       id="path5207-6-4-9"
       sodipodi:nodetypes="cscccc" />
    <path
       style="fill:#e82a2a;fill-opacity:1;fill-rule:evenodd;stroke-width:0.882637;stroke-linecap:square;stroke-miterlimit:5.9;stroke-dasharray:2.16427, 25.9712;paint-order:markers stroke fill"
       d="m -360.65429,1596.8021 2.59394,1.755 -7.83799,11.5715 2.93209,-10.2684 z"
       id="path10798-6-5"
       sodipodi:nodetypes="ccccc" />
    <path
       style="fill:#e82a76;fill-opacity:1;fill-rule:evenodd;stroke-width:0.882637;stroke-linecap:square;stroke-miterlimit:5.9;stroke-dasharray:2.16427, 25.9712;paint-order:markers stroke fill"
       d="m -366.36278,1609.3472 7.61739,-1.6963 -0.23199,2.3533 z"
       id="path10800-5-05"
       sodipodi:nodetypes="cccc" />
    <path
       id="rect5711-3"
       style="fill:#feccae;fill-opacity:1;fill-rule:evenodd;stroke-width:0.722915;stroke-linecap:square;stroke-miterlimit:5.9;stroke-dasharray:1.77263, 21.2715;paint-order:markers stroke fill;filter:url(#filter6673-3)"
       d="m 122.72764,580.35587 c -2.53758,-0.0167 -4.71419,0.1446 -4.71419,0.1446 0,0 -2.90159,1.49981 -1.59028,4.35758 0.7141,1.55628 4.20062,1.51168 4.20062,1.51168 0,0 0.59491,-0.5503 2.79096,-0.55702 h 0.004 c 0.0136,0 0.0255,-4e-5 0.039,0 2.19605,0.007 2.79096,0.55702 2.79096,0.55702 0,0 3.48652,0.0446 4.20062,-1.51168 1.31131,-2.85777 -1.59028,-4.35758 -1.59028,-4.35758 0,0 -2.1766,-0.16126 -4.71419,-0.1446 -0.22603,0.002 -0.45648,0.007 -0.68711,0.0115 -0.0142,-3e-4 -0.0283,2.9e-4 -0.0425,0 -0.23064,-0.005 -0.46109,-0.01 -0.68712,-0.0115 z"
       transform="matrix(3.4886637,0,0,3.7929443,-821.47315,-577.28004)" />
    <path
       id="rect4612-4"
       style="fill:#3b1701;fill-rule:evenodd;stroke-width:3.01092;stroke-linecap:square;stroke-miterlimit:5.9;stroke-dasharray:7.38295, 88.5954;paint-order:markers stroke fill"
       d="m -407.56609,1628.1795 9.61242,6.1023 -0.65382,1.2237 -9.94231,-5.0261 z"
       sodipodi:nodetypes="ccccc" />
    <path
       id="rect4612-9-2"
       style="fill:#3b1701;fill-rule:evenodd;stroke-width:3.01092;stroke-linecap:square;stroke-miterlimit:5.9;stroke-dasharray:7.38295, 88.5954;paint-order:markers stroke fill"
       d="m -381.11787,1634.318 9.47675,-5.8537 0.97009,2.3067 -9.97168,4.957 z"
       sodipodi:nodetypes="ccccc" />
    <ellipse
       style="fill:#030100;fill-opacity:0.933333;fill-rule:evenodd;stroke-width:2.00573;stroke-linecap:square;stroke-miterlimit:5.9;stroke-dasharray:4.91814, 59.0176;paint-order:markers stroke fill"
       id="path5102-0"
       cx="-375.048"
       cy="1637.9124"
       rx="2.9478412"
       ry="2.8770273" />
    <ellipse
       style="fill:#ffdac7;fill-opacity:0.933333;fill-rule:evenodd;stroke-width:0.708493;stroke-linecap:square;stroke-miterlimit:5.9;stroke-dasharray:1.73726, 20.8472;paint-order:markers stroke fill"
       id="path5102-2-94"
       cx="-375.86563"
       cy="1636.7665"
       rx="1.0828173"
       ry="0.97728896" />
    <ellipse
       style="fill:#030100;fill-opacity:0.933333;fill-rule:evenodd;stroke-width:2.00573;stroke-linecap:square;stroke-miterlimit:5.9;stroke-dasharray:4.91814, 59.0176;paint-order:markers stroke fill"
       id="path5102-3-4"
       cx="-402.34097"
       cy="1637.4728"
       rx="2.9478412"
       ry="2.8770273" />
    <ellipse
       style="fill:#ffdac7;fill-opacity:0.933333;fill-rule:evenodd;stroke-width:0.708493;stroke-linecap:square;stroke-miterlimit:5.9;stroke-dasharray:1.73726, 20.8472;paint-order:markers stroke fill"
       id="path5102-2-4-7"
       cx="-403.15863"
       cy="1636.3265"
       rx="1.0828173"
       ry="0.97728896" />
  </g>
</svg>
